#N canvas 265 103 814 448 10;
#X obj 266 206 adc~ 3;
#X obj 381 205 adc~ 4;
#X obj 520 210 adc~ 5;
#X obj 637 207 adc~ 6;
#X obj 340 20 ctlin 127 1;
#X obj 370 386 dac~;
#X obj 25 203 adc~ 7;
#X obj 147 208 adc~ 8;
#X text 39 39 MIDI input (from OSC);
#X text 37 107 1_127: calibrate (find troughs) 2_1-6: set minvel (default
15) 3_1-6: set thresh low 4_1-6: set thresh high;
#X obj 449 84 print;
#X msg 449 60 osc \$1;
#X obj 24 267 astring 1 string1;
#X text 608 89 /calibrate;
#X text 606 107 /thresh/low;
#X text 606 123 /thresh/high;
#X obj 208 11 loadbang;
#X msg 205 35 test;
#X obj 197 58 print tester;
#X obj 144 264 astring 2 string2;
#X obj 268 266 astring 3 string3;
#X obj 389 265 astring 4 string4;
#X obj 519 271 astring 5 string5;
#X obj 648 270 astring 6 string6;
#X connect 0 0 20 0;
#X connect 0 0 5 0;
#X connect 1 0 21 0;
#X connect 1 0 5 0;
#X connect 2 0 22 0;
#X connect 2 0 5 0;
#X connect 3 0 23 0;
#X connect 3 0 5 0;
#X connect 4 0 11 0;
#X connect 4 0 12 1;
#X connect 4 0 19 1;
#X connect 4 0 20 1;
#X connect 4 0 21 1;
#X connect 4 0 22 1;
#X connect 4 0 23 1;
#X connect 6 0 12 0;
#X connect 6 0 5 0;
#X connect 7 0 19 0;
#X connect 7 0 5 0;
#X connect 11 0 10 0;
#X connect 16 0 17 0;
#X connect 17 0 18 0;
