#N canvas 87 168 1201 630 10;
#X obj 1102 13 loadbang;
#X obj 1102 60 s bela_setDigital;
#X msg 1102 36 in 11;
#X obj 1158 -79 r bela_digitalIn11;
#X obj 1102 -80 noise~;
#X obj 1102 -39 *~;
#X obj 1102 -12 dac~;
#X obj 1158 -41 print;
#X obj 567 -73 adc~ 4;
#X obj 571 576 dac~;
#X obj 567 335 *~ 1;
#X obj 568 363 +~;
#X obj 199 242 * 0.002;
#X obj 199 338 cos~;
#X obj 267 365 cos~;
#X obj 683 522 *~;
#X obj 569 518 *~;
#X obj 566 281 clip~ 0 1;
#X obj 683 481 osc~ 20;
#X obj 571 455 clip~ -1 1;
#X obj 683 430 clip~ 0 1;
#X obj 683 382 -~ 0.25;
#X obj 566 254 *~ 3;
#X obj 566 227 -~ 0.6;
#X obj 683 406 *~ 1;
#X obj 683 454 *~ 130;
#X obj 199 216 clip 0 127;
#X obj 199 193 + 32;
#X text 1135 -11 test signal;
#X text 450 313 freq control here;
#X text 607 576 Output signals to transducers;
#X text 892 -132 Charles Matthews for Human Instruments 2018;
#X text 597 344 placeholders (unused);
#X msg 417 -204 connect 192.168.7.1 11535;
#X obj 435 -73 print monitor;
#X obj 417 -233 loadbang;
#X obj 360 -97 netsend -u -b;
#X obj 349 -260 list prepend send;
#X obj 349 -235 list trim;
#X obj 644 79 loadbang;
#X obj 40 -199 netreceive -u -b;
#X obj 40 -250 loadbang;
#X obj 40 -174 oscparse;
#X obj 40 -143 route list;
#X msg 40 -223 listen 11534;
#X obj 566 172 cyclone/scale~ 0 1 0 1;
#X obj 116 -1 unpack;
#X obj 1160 317 tomidi;
#X floatatom 11 116 5 0 0 0 - - -, f 5;
#X obj 1159 343 ctlin 64;
#X obj 1159 369 s midi-z;
#X obj 1220 343 ctlin 65;
#X obj 1220 369 s midi-y;
#X obj 1278 343 ctlin 66;
#X text 739 376 This originally ran off one oscillator \, added variation
from a second oscillator in response to feedback.;
#X obj 1278 369 s midi-x;
#X obj 349 -284 receive toOsc;
#X obj 567 312 cyclone/scale~ 0 1 0 180;
#X text 339 252 pull range back / amplify / restrict;
#X obj 167 -1 unpack;
#X obj 565 200 cyclone/rampsmooth~ 0 0;
#X obj 83 460 snapshot~;
#X obj 83 484 oscformat gyro z-audio;
#X obj 83 507 send toOsc;
#X msg 582 -203 disconnect;
#X obj 11 144 / 127;
#X obj 10 263 cyclone/scale~ 0 1 0 1;
#X obj 33 215 snapshot~;
#X obj 97 215 snapshot~;
#X obj 644 105 metro 30;
#X obj 419 314 *~;
#X obj 10 294 clip~ 0 1;
#X obj 420 277 cycle~ 100;
#X obj 354 297 *~ 1000;
#X obj 40 -118 route monitor scale smooth gyroRange gyroExp;
#X floatatom 710 78 5 0 0 0 - - -, f 5;
#X text 746 79 Polling interval;
#X obj 711 39 route interval;
#X obj 643 129 s poll;
#X obj 189 525 osc-message gyroRange low;
#X obj 221 0 select 0 1;
#X text 1220 27 currently unused;
#X text 77 90 MIDI in from Gyro via Arduino (range 0-127);
#X obj 278 192 +~ 0.25;
#X obj 278 217 clip~ 0 1;
#X obj 10 170 line~;
#X obj 267 338 +~ 0.75;
#X obj 199 307 *~ 0.25;
#X obj 570 405 osc~ 50;
#X text 306 3 offset and modulus;
#X obj 11 90 r midi-y;
#X obj 571 428 *~ 1;
#X obj -76 -7 route gyroRange2;
#X floatatom -284 146 5 0 0 0 - - -, f 5;
#X obj -284 174 / 127;
#X obj -285 293 cyclone/scale~ 0 1 0 1;
#X obj -262 245 snapshot~;
#X obj -198 245 snapshot~;
#X obj -285 324 clip~ 0 1;
#X obj -74 30 select 0 1;
#X text -218 120 MIDI in from Gyro via Arduino (range 0-127);
#X obj -285 200 line~;
#X obj -290 364 osc-message~ gyro 2;
#X obj -284 120 r midi-z;
#X msg 714 -130 write presets.txt;
#X obj 733 -97 textfile;
#X obj 853 -181 loadbang;
#X msg 853 -156 read presets.txt;
#X obj 634 -179 metro 100;
#X msg 634 -158 rewind \, bang \, bang;
#X obj 861 97 fromsymbol;
#X floatatom -249 455 5 0 0 0 - - -, f 5;
#X obj -252 526 print;
#X obj -65 510 s preset-store;
#X obj -67 486 bng 15 250 50 0 empty empty empty 17 7 0 10 -262144
-1 -1;
#X msg -208 454 10 21;
#X obj -252 502 preset-message gyroRange;
#X obj -143 -143 oscformat;
#X obj -199 200 bng 15 250 50 0 empty empty empty 17 7 0 10 -262144
-1 -1;
#X obj -78 217 bng 15 250 50 0 empty empty empty 17 7 0 10 -262144
-1 -1;
#X obj 351 526 osc-message gyroRange high;
#X obj 48 113 osc-message gyro y;
#X obj -247 143 osc-message gyro y;
#X obj 506 -13 osc-message~ accel z;
#X obj 5 333 osc-message~ gyro z-processed;
#X msg 184 -171 save 1;
#N canvas 289 56 758 603 presets 1;
#X msg 157 410 write colltest.txt;
#X obj 52 456 cyclone/coll colltest.txt;
#C restore;
#X obj 53 362 r toColl;
#X obj 53 388 list prepend 0;
#X obj 52 413 route list;
#X obj 156 361 inlet;
#X obj 156 384 t b;
#X obj 41 16 inlet;
#X msg 44 79 gyroRange low \, gyroRange high;
#X obj 40 38 t b 0;
#X obj 67 125 f;
#X obj 96 125 + 1;
#X obj 66 94 bng 15 250 50 0 empty empty empty 17 7 0 10 -262144 -1
-1;
#X text 87 93 can I guarantee this to work without a trigger?;
#X obj 42 171 s preset-store;
#X obj 329 348 inlet;
#X obj 54 583 s fromPresets;
#X obj 381 382 bng 15 250 50 0 empty empty empty 17 7 0 10 -262144
-1 -1;
#X obj 328 372 t b;
#X obj 328 410 cyclone/uzi 10 0;
#X obj 113 12 bng 15 250 50 0 empty empty empty 17 7 0 10 -262144 -1
-1;
#X obj 380 346 loadbang;
#X obj 155 601 send toOsc;
#X obj 153 508 route gyroRange;
#X obj 156 540 route low high;
#X obj 157 577 oscformat dump gyroRange low;
#X obj 340 577 oscformat dump gyroRange high;
#X connect 0 0 1 0;
#X connect 1 0 16 0;
#X connect 1 0 23 0;
#X connect 2 0 3 0;
#X connect 3 0 4 0;
#X connect 4 0 1 0;
#X connect 5 0 6 0;
#X connect 6 0 0 0;
#X connect 7 0 9 0;
#X connect 8 0 12 0;
#X connect 8 0 14 0;
#X connect 9 0 8 0;
#X connect 9 1 10 1;
#X connect 10 0 11 0;
#X connect 10 0 3 1;
#X connect 11 0 10 1;
#X connect 12 0 10 0;
#X connect 15 0 18 0;
#X connect 17 0 19 0;
#X connect 18 0 19 0;
#X connect 19 2 1 0;
#X connect 20 0 9 0;
#X connect 21 0 17 0;
#X connect 23 0 24 0;
#X connect 24 0 25 0;
#X connect 24 1 26 0;
#X connect 25 0 22 0;
#X connect 26 0 22 0;
#X restore 282 -41 pd presets;
#X msg 192 -149 store 1;
#X obj -45 194 bng 15 250 50 0 empty empty empty 17 7 0 10 -262144
-1 -1;
#X obj 281 -74 route store save recall;
#X obj -59 -193 r fromPresets;
#X msg 264 -174 recall 1;
#X obj -42 -134 print;
#X obj 191 -84 route low high;
#X connect 0 0 2 0;
#X connect 2 0 1 0;
#X connect 3 0 5 1;
#X connect 3 0 7 0;
#X connect 4 0 5 0;
#X connect 5 0 6 0;
#X connect 8 0 21 0;
#X connect 8 0 45 0;
#X connect 8 0 123 0;
#X connect 10 0 11 0;
#X connect 13 0 16 1;
#X connect 14 0 15 1;
#X connect 15 0 9 1;
#X connect 16 0 9 0;
#X connect 17 0 57 0;
#X connect 19 0 16 0;
#X connect 19 0 15 0;
#X connect 20 0 25 0;
#X connect 21 0 24 0;
#X connect 22 0 17 0;
#X connect 23 0 22 0;
#X connect 24 0 20 0;
#X connect 25 0 18 0;
#X connect 26 0 12 0;
#X connect 27 0 26 0;
#X connect 33 0 36 0;
#X connect 35 0 33 0;
#X connect 36 1 34 0;
#X connect 37 0 38 0;
#X connect 38 0 36 0;
#X connect 39 0 69 0;
#X connect 40 0 42 0;
#X connect 41 0 44 0;
#X connect 42 0 43 0;
#X connect 43 0 74 0;
#X connect 43 0 92 0;
#X connect 44 0 40 0;
#X connect 45 0 60 0;
#X connect 46 0 57 3;
#X connect 46 1 57 4;
#X connect 48 0 65 0;
#X connect 48 0 121 0;
#X connect 49 0 50 0;
#X connect 51 0 52 0;
#X connect 53 0 55 0;
#X connect 56 0 37 0;
#X connect 57 0 10 0;
#X connect 57 0 72 0;
#X connect 59 0 60 1;
#X connect 59 1 60 2;
#X connect 60 0 23 0;
#X connect 61 0 62 0;
#X connect 62 0 63 0;
#X connect 64 0 36 0;
#X connect 65 0 85 0;
#X connect 66 0 71 0;
#X connect 67 0 66 1;
#X connect 67 0 79 0;
#X connect 68 0 66 2;
#X connect 68 0 120 0;
#X connect 69 0 61 0;
#X connect 69 0 78 0;
#X connect 70 0 11 1;
#X connect 71 0 73 0;
#X connect 71 0 87 0;
#X connect 71 0 124 0;
#X connect 72 0 70 0;
#X connect 73 0 70 1;
#X connect 74 0 69 0;
#X connect 74 0 77 0;
#X connect 74 1 46 0;
#X connect 74 2 59 0;
#X connect 74 3 133 0;
#X connect 74 4 66 5;
#X connect 74 5 129 0;
#X connect 75 0 69 1;
#X connect 77 0 75 0;
#X connect 80 0 67 0;
#X connect 80 1 68 0;
#X connect 83 0 84 0;
#X connect 85 0 61 0;
#X connect 85 0 66 0;
#X connect 85 0 67 0;
#X connect 85 0 68 0;
#X connect 86 0 14 0;
#X connect 87 0 13 0;
#X connect 87 0 86 0;
#X connect 88 0 91 0;
#X connect 90 0 48 0;
#X connect 91 0 19 0;
#X connect 92 0 99 0;
#X connect 93 0 94 0;
#X connect 93 0 122 0;
#X connect 94 0 101 0;
#X connect 95 0 98 0;
#X connect 96 0 95 1;
#X connect 97 0 95 2;
#X connect 98 0 102 0;
#X connect 99 0 96 0;
#X connect 99 1 97 0;
#X connect 101 0 95 0;
#X connect 101 0 96 0;
#X connect 101 0 97 0;
#X connect 103 0 93 0;
#X connect 104 0 105 0;
#X connect 106 0 107 0;
#X connect 106 0 108 0;
#X connect 107 0 105 0;
#X connect 108 0 109 0;
#X connect 109 0 105 0;
#X connect 111 0 116 0;
#X connect 114 0 113 0;
#X connect 115 0 116 0;
#X connect 116 0 112 0;
#X connect 118 0 97 0;
#X connect 118 0 96 0;
#X connect 119 0 67 0;
#X connect 125 0 74 0;
#X connect 127 0 74 0;
#X connect 128 0 68 0;
#X connect 129 0 126 0;
#X connect 129 1 126 1;
#X connect 129 2 126 2;
#X connect 130 0 74 0;
#X connect 130 0 132 0;
#X connect 131 0 74 0;
#X connect 133 0 66 1;
#X connect 133 1 66 2;
#X connect 133 2 80 0;
