#N canvas 253 124 1008 597 10;
#X obj 340 20 ctlin 127 1;
#X text 39 39 MIDI input (from OSC);
#X text 37 107 1_127: calibrate (find troughs) 2_1-6: set minvel (default
15) 3_1-6: set thresh low 4_1-6: set thresh high;
#X obj 449 84 print;
#X msg 449 60 osc \$1;
#X obj 24 267 astring 1 string1;
#X text 608 89 /calibrate;
#X text 606 107 /thresh/low;
#X text 606 123 /thresh/high;
#X obj 208 11 loadbang;
#X msg 205 35 test;
#X obj 197 58 print tester;
#X obj 144 264 astring 2 string2;
#X obj 268 266 astring 3 string3;
#X obj 389 265 astring 4 string4;
#X obj 519 271 astring 5 string5;
#X obj 648 270 astring 6 string6;
#X obj 171 354 r string1;
#X obj 98 404 synth_string;
#X msg 99 375 60;
#X obj 99 350 loadbang;
#X obj -35 203 adc~ 3;
#X obj 150 179 adc~ 4;
#X obj 306 162 adc~ 5;
#X obj 381 205 adc~ 6;
#X obj 521 210 adc~ 7;
#X obj 637 207 adc~ 8;
#X obj 265 402 synth_string;
#X obj 266 348 loadbang;
#X msg 266 373 64;
#X obj 426 401 synth_string;
#X obj 427 347 loadbang;
#X obj 593 399 synth_string;
#X obj 594 345 loadbang;
#X msg 427 372 66;
#X msg 594 370 69;
#X obj 666 349 r string4;
#X obj 499 351 r string3;
#X obj 338 352 r string2;
#X text 600 28 hacking for strummi;
#X obj 29 470 r digital;
#X obj 182 511 hip~ 1;
#X obj -36 234 hip~ 5;
#X obj 148 232 hip~ 5;
#X obj 273 198 hip~ 5;
#X obj 393 239 hip~ 5;
#X obj 521 243 hip~ 5;
#X obj 659 246 hip~ 5;
#X obj 736 400 synth_string;
#X obj 737 346 loadbang;
#X obj 903 398 synth_string;
#X obj 904 344 loadbang;
#X obj 809 350 r string5;
#X obj 976 349 r string6;
#X obj 806 269 unpack f f f f f f;
#X msg 904 369 72;
#X msg 737 371 70;
#X msg 803 157 41 46 50 53 58 62;
#X msg 809 184 41 45 48 53 57 60;
#X msg 814 209 43 48 52 55 60 64;
#X msg 824 231 43 47 50 55 48 62;
#X obj 801 19 loadbang;
#X msg 801 40 in 11 \, in 12 \, in 13 \, in 14;
#X obj 763 120 r bela_digitalIn11;
#X obj 762 138 sel 1;
#X obj 915 141 sel 1;
#X obj 952 125 r bela_digitalIn12;
#X obj 952 206 sel 1;
#X obj 953 188 r bela_digitalIn13;
#X obj 962 257 sel 1;
#X obj 963 239 r bela_digitalIn14;
#X obj 802 83 s bela_setDigital;
#X connect 0 0 4 0;
#X connect 0 0 5 1;
#X connect 0 0 12 1;
#X connect 0 0 13 1;
#X connect 0 0 14 1;
#X connect 0 0 15 1;
#X connect 0 0 16 1;
#X connect 4 0 3 0;
#X connect 9 0 10 0;
#X connect 10 0 11 0;
#X connect 17 0 18 1;
#X connect 19 0 18 0;
#X connect 20 0 19 0;
#X connect 21 0 42 0;
#X connect 22 0 43 0;
#X connect 23 0 44 0;
#X connect 24 0 45 0;
#X connect 25 0 46 0;
#X connect 26 0 47 0;
#X connect 28 0 29 0;
#X connect 29 0 27 0;
#X connect 31 0 34 0;
#X connect 33 0 35 0;
#X connect 34 0 30 0;
#X connect 35 0 32 0;
#X connect 36 0 32 1;
#X connect 37 0 30 1;
#X connect 38 0 27 1;
#X connect 42 0 5 0;
#X connect 43 0 12 0;
#X connect 44 0 13 0;
#X connect 45 0 14 0;
#X connect 46 0 15 0;
#X connect 47 0 16 0;
#X connect 49 0 56 0;
#X connect 51 0 55 0;
#X connect 52 0 48 1;
#X connect 53 0 50 1;
#X connect 54 0 18 0;
#X connect 54 1 27 0;
#X connect 54 2 30 0;
#X connect 54 3 32 0;
#X connect 54 4 48 0;
#X connect 54 5 50 0;
#X connect 55 0 50 0;
#X connect 56 0 48 0;
#X connect 57 0 54 0;
#X connect 58 0 54 0;
#X connect 59 0 54 0;
#X connect 60 0 54 0;
#X connect 61 0 62 0;
#X connect 62 0 71 0;
#X connect 63 0 64 0;
#X connect 64 0 57 0;
#X connect 65 0 58 0;
#X connect 66 0 65 0;
#X connect 67 0 59 0;
#X connect 68 0 67 0;
#X connect 69 0 60 0;
#X connect 70 0 69 0;
