#N canvas 0 119 739 582 10;
#X obj 200 88 bonk~;
#X obj 40 144 unpack f f f;
#X obj 150 164 i;
#X obj 150 190 change;
#X obj 151 142 env~;
#X obj 200 -52 loadbang;
#X obj 149 51 inlet~;
#X obj 208 334 f;
#X obj 208 359 > 0;
#X obj 208 387 change;
#X obj 208 413 sel 0;
#X msg 209 437 0;
#X msg 107 366 0 \, \$1;
#X obj 166 514 s \$2;
#X obj 166 491 change;
#X obj 108 307 i;
#X obj 398 20 inlet;
#X obj 398 48 sel \$1 0 127;
#X obj 229 192 spigot;
#X msg 305 127 1;
#X msg 357 126 0;
#X obj 305 96 t b b;
#X msg 332 186 127;
#X obj 229 247 trough;
#X obj 229 276 + 1;
#X obj 318 309 print \$1;
#X obj 208 305 > 32;
#X obj 347 -60 ctlin \$1 2;
#X obj 444 -56 pack 4 8;
#X msg 348 -28 minvel \$1;
#X msg 444 -30 thresh \$1 \$2;
#X obj 444 -190 ctlin \$1 3;
#X obj 462 -144 ctlin \$1 4;
#X obj 462 -93 t b f;
#X msg 200 -25 thresh 4 8 \, minvel 20;
#X connect 0 1 1 0;
#X connect 1 1 7 0;
#X connect 1 1 15 0;
#X connect 2 0 3 0;
#X connect 2 0 18 0;
#X connect 3 0 26 0;
#X connect 3 0 25 0;
#X connect 4 0 2 0;
#X connect 5 0 34 0;
#X connect 6 0 0 0;
#X connect 6 0 4 0;
#X connect 7 0 8 0;
#X connect 8 0 9 0;
#X connect 9 0 10 0;
#X connect 10 0 11 0;
#X connect 11 0 14 0;
#X connect 12 0 14 0;
#X connect 14 0 13 0;
#X connect 15 0 12 0;
#X connect 16 0 17 0;
#X connect 17 0 21 0;
#X connect 17 1 21 0;
#X connect 17 2 20 0;
#X connect 18 0 23 0;
#X connect 19 0 18 1;
#X connect 20 0 18 1;
#X connect 21 0 19 0;
#X connect 21 1 22 0;
#X connect 22 0 23 1;
#X connect 23 0 24 0;
#X connect 24 0 26 1;
#X connect 26 0 7 0;
#X connect 27 0 29 0;
#X connect 28 0 30 0;
#X connect 29 0 0 0;
#X connect 30 0 0 0;
#X connect 31 0 28 0;
#X connect 32 0 33 0;
#X connect 33 0 28 0;
#X connect 33 1 28 1;
#X connect 34 0 0 0;
