#N canvas 36 370 768 608 10;
#X obj 184 239 writesf~;
#X obj 156 103 t b b;
#X msg 122 174 stop;
#X obj 158 49 bng 15 250 50 0 empty empty empty 17 7 0 10 -262144 -1
-1;
#X obj 158 4 loadbang;
#X msg 189 194 open \$1.wav \, start;
#X obj 157 73 delay 1000;
#X obj 84 274 print;
#X obj 82 194 \$1;
#X msg 81 235 stopped \$1;
#X obj 189 155 \$1;
#X obj 262 21 adc~ \$1;
#X obj 98 136 delay 60000;
#X connect 1 0 12 0;
#X connect 1 1 10 0;
#X connect 2 0 0 0;
#X connect 3 0 6 0;
#X connect 4 0 3 0;
#X connect 5 0 0 0;
#X connect 6 0 1 0;
#X connect 8 0 9 0;
#X connect 9 0 7 0;
#X connect 10 0 5 0;
#X connect 11 0 0 0;
#X connect 12 0 2 0;
#X connect 12 0 8 0;
