#N canvas 205 307 649 300 10;
#X obj 86 10 bng 15 250 50 0 empty empty empty 17 7 0 10 -262144 -1
-1;
#X obj 6 -4 noise~;
#X obj 60 75 *~;
#X obj 72 46 line~;
#X msg 127 11 0.2 \, 0 100;
#X obj 385 215 dac~;
#X obj 260 130 sig~ 10;
#X obj 23 142 bob~;
#X floatatom 259 70 5 0 0 0 - - -;
#X obj 253 44 expr 1000 / $f1;
#X floatatom 253 14 5 0 0 0 - - -;
#X obj 255 -10 mtof;
#X floatatom 255 -39 5 0 0 0 - - -;
#X obj 33 113 sig~ 500;
#X obj 99 104 sig~ 2;
#X obj 16 32 bob~;
#X obj 10 -66 sig~ 500;
#X obj 69 -52 sig~ 2;
#X obj 257 -74 inlet pitch;
#X obj 390 -41 inlet velocity;
#X obj 396 -11 / 127;
#X obj 398 76 > 0;
#X obj 219 168 *~ 1;
#X obj 378 138 * 0.99;
#X obj 481 48 tgl 15 0 empty empty empty 17 7 0 10 -262144 -1 -1 0
1;
#X floatatom 428 22 5 0 0 0 - - -;
#X obj 432 111 sel 1;
#X obj 33 190 delwrite~ \$0-myString 1000;
#X obj 369 183 vd~ \$0-myString;
#X connect 0 0 4 0;
#X connect 1 0 15 0;
#X connect 2 0 27 0;
#X connect 3 0 2 1;
#X connect 4 0 3 0;
#X connect 6 0 28 0;
#X connect 7 0 27 0;
#X connect 8 0 6 0;
#X connect 9 0 8 0;
#X connect 10 0 9 0;
#X connect 11 0 10 0;
#X connect 12 0 11 0;
#X connect 13 0 7 1;
#X connect 14 0 7 2;
#X connect 15 0 2 0;
#X connect 16 0 15 1;
#X connect 17 0 15 2;
#X connect 18 0 12 0;
#X connect 19 0 20 0;
#X connect 20 0 21 0;
#X connect 20 0 25 0;
#X connect 21 0 23 0;
#X connect 21 0 26 0;
#X connect 22 0 27 0;
#X connect 23 0 22 1;
#X connect 24 0 21 0;
#X connect 26 0 4 0;
#X connect 28 0 5 0;
#X connect 28 0 22 0;
#X connect 28 0 5 1;
