#N canvas 0 22 450 300 10;
#X obj 64 122 <;
#X obj 46 185 spigot;
#X obj 64 63 t f f;
#X obj 45 211 f;
#X obj 63 31 inlet;
#X obj 45 240 outlet;
#X obj 123 76 inlet;
#X connect 0 0 1 1;
#X connect 1 0 3 0;
#X connect 2 0 1 0;
#X connect 2 1 0 0;
#X connect 3 0 0 1;
#X connect 3 0 5 0;
#X connect 4 0 2 0;
#X connect 6 0 3 0;
